<svg xmlns="http://www.w3.org/2000/svg" xmlns:xlink="http://www.w3.org/1999/xlink" width="1792.504" height="284.997" viewBox="0 0 1792.504 284.997">
  <defs>
    <clipPath id="clip-path">
      <rect id="Rectangle_308" data-name="Rectangle 308" width="1792.504" height="284.998" fill="#fff"/>
    </clipPath>
  </defs>
  <g id="Logo" clip-path="url(#clip-path)">
    <path id="Path_1551" data-name="Path 1551" d="M129.031.787c37.671,0,73.3,13.467,100.224,40.394,49.1,49.1,49.1,144.715,0,193.637-26.927,26.77-62.554,40.23-100.224,40.23H61.188V.951h67.843Zm.343,219.206c22.5,0,43.289-6.3,59.323-22.331s22.324-37.156,22.324-59.83c0-22.5-6.3-43.64-22.51-59.823-16.019-16.2-37.149-22.5-59.651-22.5H116.243V219.993h13.131Z" transform="translate(376.194 4.838)" fill="#fff"/>
    <path id="Path_1552" data-name="Path 1552" d="M166.259,237.441c-6.133,13.982-12.438,27.785-18.75,41.767H88.373L212.966,0,337.908,279.208H278.593c-6.126-13.8-12.273-27.785-18.421-41.6H166.6Zm71.425-48.407-24.2-57.1-24.375,57.1Z" transform="translate(543.332 -0.001)" fill="#fff"/>
    <path id="Path_1553" data-name="Path 1553" d="M181.277.715V110.654H263.61V.715h55.062V275.491H263.61V165.552H181.277V275.491H126.215V.715Z" transform="translate(775.991 4.394)" fill="#fff"/>
    <path id="Path_1554" data-name="Path 1554" d="M280.782,222.554a28.005,28.005,0,0,0,27.771-27.778c0-11.773-4.6-19.264-13.982-22.681-19.765-7.327-15-5.626-34.254-12.266a109.628,109.628,0,0,1-51.645-38.014c-7.513-10.229-11.251-22.846-11.251-38.007q0-34.268,24.54-58.808C238.322,8.638,257.929.453,280.932.453Q315.2.453,339.747,25T364.3,83.808H308.9a27.7,27.7,0,1,0-55.391.164c0,9.886,3.9,17.391,11.923,22.5C281.8,117.04,279.917,115,299.532,120.8a105.8,105.8,0,0,1,53.332,36.127c7.677,9.893,11.6,22.674,11.6,38.186,0,23.01-8.178,42.61-24.554,58.972s-35.955,24.547-58.8,24.547c-23.017,0-42.61-8.178-58.972-24.547s-24.554-35.962-24.554-58.972h55.57A27.786,27.786,0,0,0,280.932,222.9Z" transform="translate(1213.772 2.784)" fill="#fff"/>
    <path id="Path_1555" data-name="Path 1555" d="M347.591.715h68.694V55.606H347.591V275.491H292.535V55.606H223.841V.715H347.591Z" transform="translate(1376.215 4.394)" fill="#fff"/>
    <path id="Path_1556" data-name="Path 1556" d="M219.885,285V5.111H164.829V156.988L0,0V197.1H55.041V127.838Z" transform="translate(-0.001 0)" fill="#fff"/>
    <rect id="Rectangle_307" data-name="Rectangle 307" width="55.041" height="52.861" transform="translate(0 227.026)" fill="#fff"/>
    <path id="Path_1557" data-name="Path 1557" d="M211.563,139.277c0-22.838,8.185-42.439,24.368-58.808s35.8-24.547,58.815-24.547q34.258,0,58.8,24.547t24.547,58.808l-.014.172h55.756q-.053-57.16-40.9-98.016Q352.017.517,294.746.524T196.73,41.433Q156.136,82.285,156,139.449h55.57l-.007-.172" transform="translate(959.115 3.221)" fill="#fff"/>
    <path id="Path_1558" data-name="Path 1558" d="M34.574.715V275.49H199.418V220.435H89.637V165.552h82.333v-54.9H89.637V55.606H199.418V.715Z" transform="translate(212.568 4.393)" fill="#fff"/>
  </g>
</svg>
